<svg width="90" height="57" viewBox="0 0 90 57" fill="none" xmlns="http://www.w3.org/2000/svg">
<path d="M15.0748 16.6611C16.172 16.4352 17.0148 15.3583 16.9497 14.259C16.8927 13.1617 15.9562 12.4492 14.857 12.6732C13.7577 12.8971 12.9169 13.976 12.9821 15.0753C13.0492 16.1827 13.9755 16.8851 15.0748 16.6611Z" fill="#FF7D7D"/>
<path d="M73.2038 12.0966C74.8385 12.634 76.2065 13.5868 77.1124 14.853C78.1343 16.278 78.3704 17.9188 77.945 19.5982C77.7455 20.3759 77.4625 21.0497 77.1409 21.638C76.2187 23.3175 75.1764 24.1155 74.4334 24.6081C74.0649 24.8544 73.8267 24.9786 73.8267 24.9786C73.8267 24.9216 73.9204 24.4066 73.8735 23.517C73.845 22.9775 73.7412 22.381 73.5336 21.7459C73.2873 21.0069 72.7193 19.8608 71.5162 19.1219C70.7874 18.676 69.9161 18.4012 68.9227 18.3442C67.3613 18.2587 65.6757 18.6292 64.2466 19.5758C63.9901 19.7468 63.471 20.1295 63.4527 20.1438C62.8583 20.5998 62.3351 21.0802 61.8669 21.5749C60.5803 22.3301 59.1105 23.006 57.8036 23.1892C57.7894 22.7841 57.7486 22.4238 57.6774 22.1429C57.4026 21.0619 56.8529 20.0176 55.8127 19.2298C55.0737 18.6699 54.0905 18.3279 52.9627 18.3178C49.9987 18.2893 47.5009 19.6369 44.8972 23.234C44.2824 24.0686 42.8431 26.3364 41.2146 28.0261C40.0033 29.278 38.5926 30.4079 37.5605 30.4079C36.168 30.4079 36.0276 29.0215 36.0276 29.0215C36.0276 29.0215 36.907 28.3579 38.0531 27.4072C44.9155 21.7235 47.4724 15.0016 46.8108 11.378C46.4891 9.58454 45.3145 8.27761 43.4396 8.15343C42.1429 8.06793 38.8857 8.31629 35.9889 13.715C34.4743 16.5284 33.1776 20.8604 32.7521 23.2136C32.3266 25.5669 32.2778 27.4378 32.2778 27.4378L28.7743 29.9234C28.7743 29.9234 29.3138 28.594 29.7311 27.3706C30.5454 25.0214 31.4452 21.6563 29.2018 19.5718C28.0374 18.4908 25.9264 17.9981 23.6647 18.6435C22.5104 18.9651 21.3256 19.5901 20.2467 20.557C16.9041 23.5516 14.8602 29.4104 12.8917 29.9702C11.3954 30.3977 12.1446 27.3706 12.1446 27.3706C12.4479 25.9273 13.5268 22.9388 14.3778 20.9927C14.6241 20.4329 14.6994 19.9952 14.5488 19.5025C14.2271 18.5071 13.1095 18.0694 12.1629 18.5539C11.7273 18.7717 11.4809 19.1137 11.1593 19.6735C10.6483 20.5754 9.30475 24.03 8.92611 25.6524C8.72661 26.5258 6.57893 33.7973 12.2301 33.7973C14.0581 33.7973 15.6562 32.468 16.4806 31.6415C16.8491 31.271 17.0588 30.9941 17.0588 30.9941C17.0588 30.9941 18.382 33.8218 21.8427 33.7973C22.3944 33.7933 23.0031 33.6996 23.6667 33.5286C21.5944 35.0004 18.498 37.1807 17.3336 38.0621C15.8089 39.2103 14.6729 40.4704 13.991 41.7427C13.3273 42.9845 13.083 44.2466 13.3009 45.4314C13.6042 47.0254 14.7116 48.2305 16.273 48.6662C16.7371 48.7985 17.2094 48.8555 17.6654 48.8555C20.5053 48.8555 22.8443 46.4554 24.198 42.4715C24.312 42.1682 25.2871 39.42 26.6409 35.7475L32.974 31.2873C33.3811 32.1993 34.5273 33.7953 37.2633 33.7953C39.5636 33.7953 41.3347 32.8243 43.2849 30.8883C43.7104 31.7616 44.4493 32.5942 45.6321 33.2009C47.1181 33.9602 49.276 34.1108 51.786 32.9444C53.6894 32.0629 55.4971 30.4404 56.6229 28.5615C56.9751 27.9752 57.2479 27.2118 57.4453 26.4056C58.0581 26.2509 58.6566 26.0494 59.2347 25.8153C58.854 26.9085 58.7156 27.9019 58.7523 28.6571C58.8948 31.5234 60.8063 33.6243 63.8069 33.7851C65.1139 33.8523 66.4676 33.549 67.7359 32.9403C69.0224 32.3336 70.1115 31.4929 70.9075 30.6949C71.8541 29.7361 72.3834 28.8628 72.5544 28.5879C74.3641 28.2948 76.1373 27.5355 77.546 26.3771C77.6681 26.2591 77.8004 26.1064 77.9613 25.9476C79.4941 24.3699 80.3186 22.3261 80.3186 20.1214C80.3268 16.3126 77.5154 13.3649 73.2119 12.0905L73.2038 12.0966ZM40.5123 13.3323C41.3917 12.119 42.2446 11.4411 42.8879 11.5938C44.5063 11.9663 43.3236 18.5315 36.109 24.7384C36.8663 20.1092 39.2053 15.1481 40.5102 13.3323H40.5123ZM21.0305 40.7859C20.7271 41.6226 20.3485 42.6669 19.7805 43.5219C18.7484 45.0793 17.6797 45.5923 16.9794 45.1566C16.3443 44.7576 16.5906 43.4751 17.8873 42.1356C19.3632 40.6068 21.5883 39.2673 21.5883 39.2673C21.5781 39.2673 21.3419 39.9126 21.0305 40.788V40.7859ZM26.5493 24.9318C25.7065 28.5655 23.227 30.0598 21.8631 30.2593C20.1877 30.4974 19.4304 28.708 20.2243 26.3833C21.0203 24.0585 23.0255 21.9983 24.7029 21.7907C26.1991 21.6014 27.0033 22.9958 26.5493 24.9318ZM52.6553 27.8103C50.8272 29.9926 48.3518 30.929 47.1263 29.903C45.8988 28.877 46.3873 26.2733 48.2134 24.091C50.0414 21.9088 52.5169 20.9723 53.7424 21.9983C54.9699 23.0243 54.4813 25.626 52.6553 27.8103ZM68.599 27.8266C66.7811 29.9966 64.3138 30.9249 63.0863 29.8969C61.8588 28.8689 62.3371 26.2774 64.155 24.1073C65.9729 21.9373 68.4402 21.009 69.6678 22.037C70.8953 23.065 70.4169 25.6565 68.599 27.8266Z" fill="#4E4EEB"/>
<path d="M79.8954 12.8626C78.0124 10.2182 74.8692 8.51429 71.2803 8.19672C68.7438 7.97482 66.1767 8.42675 63.8011 9.524C61.6045 10.5439 59.75 12.1562 58.4146 14.025C58.1397 14.4138 57.9687 14.8454 57.9972 15.3014C58.0542 16.248 58.8767 16.8587 59.8518 16.6673C60.2304 16.594 60.5724 16.4312 60.9775 16.02C61.289 15.7105 62.9827 13.7278 65.2362 12.6651C66.9584 11.8488 68.8985 11.4966 70.979 11.6493C71.3861 11.6798 71.8055 11.7531 72.1353 11.8203C77.0332 12.9013 80.3168 16.0118 80.3087 20.126C80.3087 22.3307 79.4842 24.3745 77.9513 25.9522C77.7925 26.111 77.6582 26.2637 77.536 26.3818C77.6806 26.2616 77.8231 26.1395 77.9594 26.0113C79.7305 24.4641 80.8848 22.4141 81.3774 20.4395C82.0126 17.7727 81.4914 15.112 79.8913 12.8605L79.8954 12.8626Z" fill="#FF7D7D"/>
</svg>
